<svg version="1.0" xmlns="http://www.w3.org/2000/svg"
 width="300.000000pt" height="90.000000pt" viewBox="0 0 300.000000 90.000000"
 preserveAspectRatio="xMidYMid meet">
<metadata>
Created by potrace 1.10, written by Peter Selinger 2001-2011
</metadata>
<g transform="translate(0.000000,90.000000) scale(0.100000,-0.100000)"
fill="#000000" stroke="none">
<path d="M2403 768 c-6 -7 -14 -41 -18 -76 -6 -58 -9 -62 -24 -49 -13 13 -18
13 -28 2 -9 -9 -29 -12 -71 -8 -87 8 -95 1 -108 -104 -10 -77 -9 -101 10 -196
27 -140 45 -145 61 -17 12 90 21 89 40 -4 11 -51 23 -85 29 -83 17 6 47 146
43 195 -5 45 14 167 28 180 4 4 5 -11 1 -33 -16 -98 -18 -135 -7 -186 21 -97
43 -160 54 -156 6 2 18 34 27 73 l17 69 12 -43 c10 -36 15 -41 27 -32 8 7 14
21 14 31 0 11 5 19 10 19 13 0 13 0 -5 -50 -25 -72 -29 -70 109 -70 l124 0 26
79 25 80 -49 122 c-28 67 -52 124 -55 127 -10 11 -28 -18 -32 -50 -6 -57 -9
-60 -46 -35 -31 20 -33 25 -24 50 13 38 -8 65 -33 42 -9 -8 -29 -15 -44 -15
-26 0 -27 2 -20 33 12 50 10 90 -4 95 -11 3 -12 0 -3 -15 7 -15 6 -25 -5 -42
l-15 -21 -30 20 c-28 20 -38 53 -21 64 5 3 8 -5 8 -17 -1 -17 6 -23 27 -25 25
-3 28 -1 24 25 -3 23 -9 29 -34 31 -16 2 -34 -3 -40 -10z m43 -103 c14 -13 13
-15 -9 -15 -14 0 -24 6 -24 15 0 8 4 15 9 15 5 0 16 -7 24 -15z m51 -42 c34
-4 58 -1 67 6 9 8 16 8 20 2 10 -15 -32 -34 -65 -29 -16 3 -29 4 -29 3 0 -1 5
-17 11 -34 8 -23 15 -29 22 -22 30 30 116 -7 137 -59 7 -17 10 -44 6 -60 l-5
-30 49 0 50 0 -21 53 c-12 28 -30 74 -40 100 -20 51 -25 77 -11 61 10 -10 92
-214 92 -226 0 -5 -54 -8 -120 -8 -73 0 -120 4 -120 10 0 6 18 10 39 10 83 0
96 76 18 103 -28 10 -67 -10 -67 -35 0 -35 -14 -10 -38 68 -19 61 -27 73 -49
79 -45 11 -47 -6 -16 -114 17 -56 26 -106 22 -113 -9 -15 -7 -19 -43 109 -14
50 -26 99 -26 107 0 19 30 37 50 30 8 -3 39 -8 67 -11z m-146 -6 c-4 -4 -21
-9 -37 -11 -19 -1 -28 -7 -26 -17 2 -8 12 -47 23 -88 10 -41 19 -83 19 -94 0
-40 -16 -3 -40 95 -21 81 -30 102 -47 109 -13 5 -27 3 -37 -4 -14 -11 -13 -20
4 -92 21 -86 25 -125 13 -125 -8 0 -43 161 -43 196 0 34 18 41 100 40 43 -1
75 -5 71 -9z m101 -49 c-3 -14 -1 -19 6 -14 8 5 12 -1 12 -17 0 -26 27 -88 43
-99 14 -9 48 14 43 29 -6 14 52 9 67 -6 12 -12 -18 -45 -33 -36 -6 4 -18 1
-27 -7 -14 -11 -16 -11 -10 2 4 8 2 6 -5 -4 -7 -11 -21 -28 -31 -38 -27 -28
-47 -7 -47 48 0 26 -5 44 -11 44 -7 0 -9 10 -7 25 3 14 -1 30 -8 36 -17 14
-16 69 1 62 7 -2 10 -13 7 -25z m-205 0 c-3 -10 -2 -16 2 -14 8 5 52 -166 51
-199 -1 -30 -51 74 -52 107 -1 16 -5 31 -10 34 -4 3 -6 10 -2 15 3 5 1 15 -4
22 -5 7 -12 22 -14 34 -5 17 -2 21 14 20 13 -1 18 -7 15 -19z m446 -58 c3 -11
2 -20 -3 -20 -4 0 -10 9 -13 20 -3 11 -2 20 3 20 4 0 10 -9 13 -20z m-303 -51
c0 -21 4 -28 12 -23 8 5 9 2 5 -9 -3 -9 -2 -19 2 -22 14 -8 18 -40 9 -65 -9
-23 -11 -21 -28 30 -21 59 -27 135 -10 125 6 -3 10 -20 10 -36z m315 11 c-3
-5 -2 -10 3 -10 5 0 9 -7 9 -15 0 -8 -6 -15 -14 -15 -13 0 -18 31 -6 43 10 10
15 8 8 -3z m-507 -115 c-1 -31 -16 35 -16 70 0 25 2 24 9 -10 4 -22 8 -49 7
-60z m436 3 c-7 -10 -1 -10 30 2 17 6 27 6 32 -1 3 -6 15 -9 25 -6 27 7 32 -6
19 -53 l-11 -40 -94 0 -95 0 3 53 2 52 47 1 c26 1 45 -3 42 -8z"/>
<path d="M786 644 c-14 -9 -35 -12 -76 -7 -100 10 -127 -19 -156 -167 -10 -49
-22 -34 -29 38 -11 101 -25 122 -85 122 -51 0 -77 -23 -96 -86 -11 -32 -21
-49 -25 -42 -7 15 -22 83 -23 113 -1 11 -8 21 -16 22 -11 2 -27 -28 -57 -102
l-41 -106 29 -86 c15 -47 34 -92 40 -99 7 -8 31 -14 59 -14 35 0 50 -4 54 -17
6 -14 9 -14 27 5 11 12 36 31 57 41 43 22 67 46 80 81 8 21 11 15 22 -43 7
-37 16 -67 20 -67 17 0 40 40 51 90 l13 55 14 -72 c8 -40 18 -73 22 -73 18 0
36 38 51 114 l17 81 1 -55 c1 -69 25 -194 47 -249 13 -33 27 -47 64 -66 27
-13 51 -30 54 -37 5 -11 7 -11 12 0 3 7 34 25 68 41 68 31 103 72 113 136 5
32 8 35 40 35 44 0 87 41 101 96 13 52 9 233 -7 261 -15 30 -42 43 -85 43 -46
0 -76 -29 -76 -72 0 -57 -10 -78 -36 -78 -22 0 -24 5 -26 48 0 26 0 55 1 66 1
19 -15 46 -30 46 -4 0 -12 -19 -17 -42 l-10 -43 -1 44 -1 44 -36 -6 c-37 -6
-90 -35 -81 -44 3 -3 16 2 29 11 12 9 32 16 43 15 13 0 9 -4 -12 -10 -86 -25
-144 -203 -93 -286 10 -17 27 -36 37 -41 86 -44 223 8 223 85 0 20 -4 22 -24
17 -29 -7 -61 9 -77 37 -8 15 -7 40 2 92 17 102 31 128 24 46 -4 -56 -2 -68
14 -83 11 -10 31 -16 48 -14 27 3 28 6 38 73 9 62 13 71 36 79 81 28 135 -62
95 -157 -19 -45 -47 -67 -91 -71 -37 -3 -39 -6 -50 -50 -15 -58 -54 -101 -114
-122 -25 -10 -51 -24 -58 -31 -8 -10 -13 -11 -18 -3 -4 7 -27 20 -51 30 -50
22 -72 58 -81 128 -7 59 19 163 53 215 13 20 20 37 15 37 -5 0 -7 13 -5 29 6
35 -5 44 -30 25z m4 -28 c-4 -4 -23 -9 -41 -10 l-32 -1 -24 -99 c-21 -89 -39
-133 -50 -123 -3 4 33 146 52 206 6 19 2 21 -29 21 -42 0 -45 -5 -76 -120 -20
-79 -34 -110 -44 -99 -4 4 33 131 56 190 5 15 19 31 31 36 27 12 169 11 157
-1z m-526 -65 c-23 -64 -15 -83 33 -79 35 3 38 6 60 63 25 66 44 85 82 85 38
0 61 -27 61 -74 0 -51 -29 -100 -72 -122 -18 -9 -47 -27 -65 -40 -21 -16 -33
-20 -35 -12 -3 7 -20 11 -45 10 -27 -2 -47 3 -63 16 l-24 19 39 103 c21 57 41
98 43 92 2 -7 -4 -34 -14 -61z m401 7 c-4 -18 -11 -34 -15 -36 -4 -2 -6 -12
-3 -22 3 -11 1 -20 -4 -20 -9 0 -11 -15 -15 -80 0 -8 -6 -22 -14 -30 -7 -8
-16 -28 -20 -44 l-7 -29 -17 33 c-17 32 -17 35 1 54 10 11 22 34 25 53 3 18 9
31 13 29 3 -2 7 11 8 29 2 38 28 95 44 95 7 0 8 -12 4 -32z m79 20 c-6 -10 -4
-10 7 0 7 6 22 12 32 12 18 0 18 -2 5 -22 -8 -13 -20 -40 -27 -60 -7 -21 -16
-38 -20 -38 -4 0 -18 -36 -31 -79 -13 -44 -27 -78 -31 -76 -16 10 -20 58 -6
74 8 9 18 31 22 49 4 18 11 30 16 26 6 -3 7 6 4 23 -5 23 -4 25 5 13 10 -13
11 -12 6 4 -8 24 3 86 16 86 5 0 6 -6 2 -12z m186 -18 c15 -37 5 -68 -26 -76
-13 -3 -40 -24 -58 -46 l-34 -40 -4 29 c-8 59 49 157 93 160 10 1 22 -10 29
-27z m24 -227 l7 -53 -36 0 c-47 0 -105 25 -105 45 0 40 62 125 100 137 15 5
18 -4 34 -129z m-425 62 c0 -27 -46 -79 -100 -114 -39 -24 -52 -27 -101 -23
-55 4 -57 5 -73 44 -8 22 -13 43 -10 49 6 9 54 7 71 -4 6 -3 24 1 40 10 16 9
47 25 69 36 21 11 48 31 59 44 l19 25 13 -23 c7 -13 13 -33 13 -44z m687 -49
c-8 -42 -51 -86 -84 -86 -31 0 -62 -26 -62 -53 0 -48 -32 -89 -96 -119 l-62
-30 -41 21 c-43 22 -65 49 -75 93 -6 28 9 33 36 10 8 -6 18 -9 21 -5 4 3 7 1
7 -5 0 -14 33 -16 58 -3 9 6 43 22 74 36 51 24 61 34 85 84 15 31 27 59 25 63
-1 4 16 11 38 14 22 4 40 10 40 15 0 11 34 17 39 6 1 -4 0 -23 -3 -41z m-203
11 c21 -23 18 -37 -8 -35 -24 2 -34 25 -18 41 9 10 13 9 26 -6z"/>
<path d="M401 596 c-8 -10 -51 -119 -51 -131 0 0 17 1 38 3 49 6 92 45 92 87
0 17 -5 36 -12 43 -16 16 -53 15 -67 -2z m23 -17 c-4 -8 -1 -8 13 -1 16 9 20
8 21 -6 2 -34 -9 -62 -23 -62 -8 0 -15 -4 -15 -9 0 -6 -8 -9 -19 -8 -16 1 -17
5 -9 32 5 16 12 38 15 48 3 9 10 17 15 17 5 0 6 -5 2 -11z"/>
<path d="M1754 631 c-12 -5 -31 -22 -43 -37 -19 -24 -21 -39 -21 -141 0 -122
7 -149 54 -192 14 -14 26 -33 26 -43 0 -33 15 -18 48 50 25 50 33 80 32 120 0
28 4 52 9 52 13 0 21 -26 21 -68 0 -46 30 -96 69 -116 16 -9 37 -26 46 -38 12
-16 19 -19 22 -10 3 7 22 30 43 50 32 32 38 46 44 97 4 33 12 76 18 95 22 77
-32 172 -105 185 -45 9 -92 -6 -91 -29 2 -21 -1 -20 -35 5 -32 23 -104 34
-137 20z m135 -37 c17 -14 31 -34 31 -44 0 -26 45 -77 74 -84 58 -14 103 32
83 87 -13 40 -49 60 -96 55 -22 -2 -37 0 -35 4 9 14 89 8 113 -8 29 -21 51
-72 51 -119 0 -26 -9 -46 -37 -77 -21 -24 -39 -45 -41 -48 -2 -3 -8 3 -13 13
-6 9 -28 26 -50 38 -45 22 -69 66 -69 123 0 25 -7 40 -26 55 -33 26 -100 28
-126 4 -20 -18 -24 -73 -8 -104 13 -24 68 -26 77 -3 9 25 -11 49 -41 47 -14
-1 -26 2 -26 8 0 15 54 10 78 -7 30 -21 28 -51 -8 -119 -16 -31 -30 -52 -30
-47 0 6 -18 32 -40 57 -35 41 -40 52 -40 97 0 73 25 98 96 98 42 0 59 -5 83
-26z m-89 -14 c0 -5 -7 -10 -16 -10 -8 0 -12 5 -9 10 3 6 10 10 16 10 5 0 9
-4 9 -10z m45 0 c4 -6 10 -8 15 -5 12 7 20 -20 10 -36 -7 -10 -14 -7 -34 14
-14 16 -26 30 -26 33 0 8 29 4 35 -6z m189 -2 c18 -19 27 -49 21 -69 -8 -25
-59 -25 -85 -1 -21 20 -40 80 -21 68 6 -4 11 -2 11 3 0 15 59 14 74 -1z m-78
-188 c6 0 21 -10 34 -22 30 -28 50 -31 72 -11 16 14 17 13 12 -12 -6 -36 -17
-56 -42 -79 -20 -17 -22 -17 -65 13 -51 34 -57 46 -57 103 0 39 1 40 18 25 10
-10 23 -17 28 -17z m-212 4 c3 -8 10 -12 16 -9 5 3 7 0 4 -9 -3 -8 3 -19 15
-26 12 -6 21 -7 21 -3 0 4 4 2 9 -6 8 -13 -16 -71 -31 -71 -3 0 -18 14 -32 31
-18 21 -26 42 -26 70 0 39 13 52 24 23z"/>
<path d="M1115 598 c-8 -24 -23 -123 -20 -129 2 -3 20 -3 40 -1 64 8 97 80 55
122 -22 22 -68 27 -75 8z m66 -43 c19 12 8 -17 -16 -43 -30 -32 -43 -21 -37
32 4 38 35 55 40 24 2 -10 8 -16 13 -13z"/>
</g>
</svg>
